<?xml version="1.0" standalone="no"?>
<!DOCTYPE svg PUBLIC "-//W3C//DTD SVG 20010904//EN"
 "http://www.w3.org/TR/2001/REC-SVG-20010904/DTD/svg10.dtd">
<svg version="1.0" xmlns="http://www.w3.org/2000/svg"
 width="256.000000pt" height="256.000000pt" viewBox="0 0 256.000000 256.000000"
 preserveAspectRatio="xMidYMid meet">
<metadata>
Created by potrace 1.14, written by Peter Selinger 2001-2017
</metadata>
<g transform="translate(0.000000,256.000000) scale(0.100000,-0.100000)"
fill="#000000" stroke="none">
<path d="M1200 2320 l0 -160 80 0 80 0 0 160 0 160 -80 0 -80 0 0 -160z"/>
<path d="M320 2160 l0 -80 40 0 40 0 0 -40 0 -40 40 0 40 0 0 -40 0 -40 80 0
80 0 0 80 0 80 -40 0 -40 0 0 40 0 40 -40 0 -40 0 0 40 0 40 -80 0 -80 0 0
-80z"/>
<path d="M2080 2200 l0 -40 -40 0 -40 0 0 -40 0 -40 -40 0 -40 0 0 -80 0 -80
80 0 80 0 0 40 0 40 40 0 40 0 0 40 0 40 40 0 40 0 0 80 0 80 -80 0 -80 0 0
-40z"/>
<path d="M1040 2040 l0 -40 -80 0 -80 0 0 -40 0 -40 -80 0 -80 0 0 -40 0 -40
-40 0 -40 0 0 -80 0 -80 -40 0 -40 0 0 -80 0 -80 -40 0 -40 0 0 -240 0 -240
40 0 40 0 0 -80 0 -80 40 0 40 0 0 -80 0 -80 40 0 40 0 0 -40 0 -40 80 0 80 0
0 -40 0 -40 80 0 80 0 0 -40 0 -40 240 0 240 0 0 40 0 40 80 0 80 0 0 40 0 40
80 0 80 0 0 40 0 40 40 0 40 0 0 80 0 80 40 0 40 0 0 80 0 80 40 0 40 0 0 240
0 240 -40 0 -40 0 0 80 0 80 -40 0 -40 0 0 80 0 80 -40 0 -40 0 0 40 0 40 -80
0 -80 0 0 40 0 40 -80 0 -80 0 0 40 0 40 -240 0 -240 0 0 -40z"/>
<path d="M80 1280 l0 -80 160 0 160 0 0 80 0 80 -160 0 -160 0 0 -80z"/>
<path d="M2160 1280 l0 -80 160 0 160 0 0 80 0 80 -160 0 -160 0 0 -80z"/>
<path d="M480 600 l0 -40 -40 0 -40 0 0 -40 0 -40 -40 0 -40 0 0 -80 0 -80 80
0 80 0 0 40 0 40 40 0 40 0 0 40 0 40 40 0 40 0 0 80 0 80 -80 0 -80 0 0 -40z"/>
<path d="M1920 560 l0 -80 40 0 40 0 0 -40 0 -40 40 0 40 0 0 -40 0 -40 80 0
80 0 0 80 0 80 -40 0 -40 0 0 40 0 40 -40 0 -40 0 0 40 0 40 -80 0 -80 0 0
-80z"/>
<path d="M1200 240 l0 -160 80 0 80 0 0 160 0 160 -80 0 -80 0 0 -160z"/>
</g>
</svg>
